<?xml version="1.0" encoding="UTF-8" standalone="no"?>
<svg width="400px" height="400px" viewBox="0 0 400 400" version="1.1" xmlns="http://www.w3.org/2000/svg" xmlns:xlink="http://www.w3.org/1999/xlink" xmlns:sketch="http://www.bohemiancoding.com/sketch/ns">
    <!-- Generator: Sketch 3.4.4 (17249) - http://www.bohemiancoding.com/sketch -->
    <title>logo_opentimestamps_mark_white</title>
    <desc>Created with Sketch.</desc>
    <defs></defs>
    <g id="Page-1" stroke="none" stroke-width="1" fill="none" fill-rule="evenodd" sketch:type="MSPage">
        <g id="logo_opentimestamps_mark_white" sketch:type="MSLayerGroup">
            <g id="Page-1" sketch:type="MSShapeGroup">
                <g id="logo_opentimestamps_mark">
                    <g id="Page-1">
                        <g id="logo_opentimestamps">
                            <g id="Page-1">
                                <g id="logo">
                                    <rect id="Rectangle-1" fill="#FFFFFF" x="0" y="0" width="400" height="400"></rect>
                                    <path d="M310.8,320.583682 L309.6,320.583682 L309.6,296.566946 L310.8,296.566946 C314.7762,296.566946 318,299.792994 318,303.771967 L318,313.378661 C318,317.357634 314.7762,320.583682 310.8,320.583682 L310.8,320.583682 L310.8,320.583682 L310.8,320.583682 L310.8,320.583682 Z M310.8,266.546025 L309.6,266.546025 L309.6,242.529289 L310.8,242.529289 C314.7762,242.529289 318,245.755337 318,249.73431 L318,259.341004 C318,263.319977 314.7762,266.546025 310.8,266.546025 L310.8,266.546025 L310.8,266.546025 L310.8,266.546025 L310.8,266.546025 Z M310.8,212.508368 L309.6,212.508368 L309.6,188.491632 L310.8,188.491632 C314.7762,188.491632 318,191.71768 318,195.696653 L318,205.303347 C318,209.28232 314.7762,212.508368 310.8,212.508368 L310.8,212.508368 L310.8,212.508368 L310.8,212.508368 L310.8,212.508368 Z M310.8,158.470711 L309.6,158.470711 L309.6,134.453975 L310.8,134.453975 C314.7762,134.453975 318,137.680023 318,141.658996 L318,151.26569 C318,155.244663 314.7762,158.470711 310.8,158.470711 L310.8,158.470711 L310.8,158.470711 L310.8,158.470711 L310.8,158.470711 Z M310.8,104.433054 L309.6,104.433054 L309.6,80.416318 L310.8,80.416318 C314.7762,80.416318 318,83.6423661 318,87.6213389 L318,97.2280335 C318,101.207006 314.7762,104.433054 310.8,104.433054 L310.8,104.433054 L310.8,104.433054 L310.8,104.433054 L310.8,104.433054 Z M294.6,335.594142 L282.6,335.594142 C282.6,320.671944 294.6882,308.575314 309.6,308.575314 L309.6,320.583682 C301.3158,320.583682 294.6,327.304165 294.6,335.594142 L294.6,335.594142 L294.6,335.594142 L294.6,335.594142 L294.6,335.594142 Z M255.6,320.583682 C247.3158,320.583682 240.6,327.304165 240.6,335.594142 L228.6,335.594142 C228.6,320.671944 240.6882,308.575314 255.6,308.575314 C270.5118,308.575314 282.6,320.671944 282.6,335.594142 L270.6,335.594142 C270.6,327.304165 263.8842,320.583682 255.6,320.583682 L255.6,320.583682 L255.6,320.583682 L255.6,320.583682 L255.6,320.583682 Z M201.6,320.583682 C193.3158,320.583682 186.6,327.304165 186.6,335.594142 L186.6,335.594142 L186.6,336.794979 C186.6,340.773952 183.3762,344 179.4,344 L169.8,344 C165.8238,344 162.6,340.773952 162.6,336.794979 L162.6,335.594142 C162.6,327.304165 155.8842,320.583682 147.6,320.583682 C139.3158,320.583682 132.6,327.304165 132.6,335.594142 L132.6,336.794979 C132.6,340.773952 129.3762,344 125.4,344 L115.8,344 C111.8238,344 108.6,340.773952 108.6,336.794979 L108.6,335.594142 C108.6,327.304165 101.8842,320.583682 93.6,320.583682 L92.4,320.583682 C88.4238,320.583682 85.2,317.357634 85.2,313.378661 L85.2,303.771967 C85.2,299.792994 88.4238,296.566946 92.4,296.566946 L93.6,296.566946 C101.8842,296.566946 108.6,289.846462 108.6,281.556485 C108.6,273.266508 101.8842,266.546025 93.6,266.546025 L93.6,266.546025 C90.2862,266.546025 87.6,263.857952 87.6,260.541841 C87.6,257.22573 90.2862,254.537657 93.6,254.537657 L93.6,254.537657 C108.5118,254.537657 120.6,266.634287 120.6,281.556485 C120.6,296.478684 108.5118,308.575314 93.6,308.575314 C108.5118,308.575314 120.6,320.671944 120.6,335.594142 C120.6,320.671944 132.6882,308.575314 147.6,308.575314 C162.5118,308.575314 174.6,320.671944 174.6,335.594142 C174.6,320.671944 186.6882,308.575314 201.6,308.575314 C216.5118,308.575314 228.6,320.671944 228.6,335.594142 L216.6,335.594142 C216.6,327.304165 209.8842,320.583682 201.6,320.583682 L201.6,320.583682 L201.6,320.583682 L201.6,320.583682 L201.6,320.583682 Z M282.6,281.556485 C282.6,266.634287 294.6882,254.537657 309.6,254.537657 L309.6,266.546025 C301.3158,266.546025 294.6,273.266508 294.6,281.556485 C294.6,289.846462 301.3158,296.566946 309.6,296.566946 L309.6,308.575314 C294.6882,308.575314 282.6,296.478684 282.6,281.556485 L282.6,281.556485 L282.6,281.556485 L282.6,281.556485 L282.6,281.556485 Z M282.6,227.518828 C282.6,212.59663 294.6882,200.5 309.6,200.5 L309.6,212.508368 C301.3158,212.508368 294.6,219.228851 294.6,227.518828 C294.6,235.808805 301.3158,242.529289 309.6,242.529289 L309.6,254.537657 C294.6882,254.537657 282.6,242.441027 282.6,227.518828 L282.6,227.518828 L282.6,227.518828 L282.6,227.518828 L282.6,227.518828 Z M282.6,173.481172 C282.6,158.558973 294.6882,146.462343 309.6,146.462343 L309.6,158.470711 C301.3158,158.470711 294.6,165.191195 294.6,173.481172 C294.6,181.771149 301.3158,188.491632 309.6,188.491632 L309.6,200.5 C294.6882,200.5 282.6,188.40337 282.6,173.481172 L282.6,173.481172 L282.6,173.481172 L282.6,173.481172 L282.6,173.481172 Z M282.6,119.443515 C282.6,104.521316 294.6882,92.4246862 309.6,92.4246862 L309.6,104.433054 C301.3158,104.433054 294.6,111.153538 294.6,119.443515 C294.6,127.733492 301.3158,134.453975 309.6,134.453975 L309.6,146.462343 C294.6882,146.462343 282.6,134.365713 282.6,119.443515 L282.6,119.443515 L282.6,119.443515 L282.6,119.443515 L282.6,119.443515 Z M282.6,65.4058577 L294.6,65.4058577 C294.6,73.6958347 301.3158,80.416318 309.6,80.416318 L309.6,92.4246862 C294.6882,92.4246862 282.6,80.3280565 282.6,65.4058577 L282.6,65.4058577 L282.6,65.4058577 L282.6,65.4058577 L282.6,65.4058577 Z M255.6,92.4246862 C240.6882,92.4246862 228.6,80.3280565 228.6,65.4058577 C228.6,80.3280565 216.5118,92.4246862 201.6,92.4246862 C186.6882,92.4246862 174.6,80.3280565 174.6,65.4058577 C174.6,80.3280565 162.5118,92.4246862 147.6,92.4246862 C132.6882,92.4246862 120.6,80.3280565 120.6,65.4058577 C120.6,80.3280565 108.5118,92.4246862 93.6,92.4246862 C108.5118,92.4246862 120.6,104.521316 120.6,119.443515 C120.6,134.365713 108.5118,146.462343 93.6,146.462343 C90.2862,146.462343 87.6,143.77427 87.6,140.458159 C87.6,137.142048 90.2862,134.453975 93.6,134.453975 C101.8842,134.453975 108.6,127.733492 108.6,119.443515 C108.6,111.153538 101.8842,104.433054 93.6,104.433054 L92.4,104.433054 C88.4238,104.433054 85.2,101.207006 85.2,97.2280335 L85.2,87.6213389 C85.2,83.6423661 88.4238,80.416318 92.4,80.416318 L93.6,80.416318 C101.8842,80.416318 108.6,73.6958347 108.6,65.4058577 L108.6,64.2050209 C108.6,60.2260481 111.8238,57 115.8,57 L125.4,57 C129.3762,57 132.6,60.2260481 132.6,64.2050209 L132.6,65.4058577 C132.6,73.6958347 139.3158,80.416318 147.6,80.416318 C155.8842,80.416318 162.6,73.6958347 162.6,65.4058577 L162.6,64.2050209 C162.6,60.2260481 165.8238,57 169.8,57 L179.4,57 C183.3762,57 186.6,60.2260481 186.6,64.2050209 L186.6,65.4058577 C186.6,73.6958347 193.3158,80.416318 201.6,80.416318 C209.8842,80.416318 216.6,73.6958347 216.6,65.4058577 L216.6,64.2050209 C216.6,60.2260481 219.8238,57 223.8,57 L233.4,57 C237.3762,57 240.6,60.2260481 240.6,64.2050209 L240.6,65.4058577 L240.6,65.4058577 C240.6,73.6958347 247.3158,80.416318 255.6,80.416318 C263.8842,80.416318 270.6,73.6958347 270.6,65.4058577 L282.6,65.4058577 C282.6,80.3280565 270.5118,92.4246862 255.6,92.4246862 L255.6,92.4246862 L255.6,92.4246862 L255.6,92.4246862 L255.6,92.4246862 Z M270.6,64.2050209 C270.6,60.2260481 273.8238,57 277.8,57 L287.4,57 C291.3762,57 294.6,60.2260481 294.6,64.2050209 L294.6,65.4058577 L270.6,65.4058577 L270.6,64.2050209 L270.6,64.2050209 L270.6,64.2050209 L270.6,64.2050209 L270.6,64.2050209 Z M240.6,336.794979 C240.6,340.773952 237.3762,344 233.4,344 L223.8,344 C219.8238,344 216.6,340.773952 216.6,336.794979 L216.6,335.594142 L240.6,335.594142 L240.6,336.794979 L240.6,336.794979 L240.6,336.794979 L240.6,336.794979 L240.6,336.794979 Z M294.6,336.794979 C294.6,340.773952 291.3762,344 287.4,344 L277.8,344 C273.8238,344 270.6,340.773952 270.6,336.794979 L270.6,335.594142 L294.6,335.594142 L294.6,336.794979 L294.6,336.794979 L294.6,336.794979 L294.6,336.794979 L294.6,336.794979 Z" id="Shape" fill="#004BAD"></path>
                                    <path d="M201,146.462343 C204.3138,146.462343 207,149.150416 207,152.466527 L207,190.11096 C208.8168,191.164695 210.3288,192.677749 211.3818,194.495816 L231,194.495816 C234.3138,194.495816 237,197.183889 237,200.5 C237,203.816111 234.3138,206.504184 231,206.504184 L211.3818,206.504184 C209.3058,210.089883 205.4388,212.508368 201,212.508368 C194.3724,212.508368 189,207.132222 189,200.5 C189,196.058105 191.4168,192.188408 195,190.11096 L195,152.466527 C195,149.150416 197.6862,146.462343 201,146.462343 L201,146.462343 L201,146.462343 L201,146.462343 L201,146.462343 Z M252.6,290.562762 L150,290.562762 C143.3724,290.562762 138,285.186615 138,278.554393 L138,260.541841 C138,257.22573 140.6862,254.537657 144,254.537657 C147.3138,254.537657 150,257.22573 150,260.541841 L150,272.550209 C150,275.86632 152.6862,278.554393 156,278.554393 L246.6,278.554393 C249.9138,278.554393 252.6,275.86632 252.6,272.550209 L252.6,128.449791 C252.6,125.13368 249.9138,122.445607 246.6,122.445607 L156,122.445607 C152.6862,122.445607 150,125.13368 150,128.449791 L150,140.458159 C150,143.77427 147.3138,146.462343 144,146.462343 C140.6862,146.462343 138,143.77427 138,140.458159 L138,122.445607 C138,115.813385 143.3724,110.437238 150,110.437238 L252.6,110.437238 C259.2276,110.437238 264.6,115.813385 264.6,122.445607 L264.6,278.554393 C264.6,285.186615 259.2276,290.562762 252.6,290.562762 L252.6,290.562762 L252.6,290.562762 L252.6,290.562762 L252.6,290.562762 Z" id="Shape" fill="#004BAD"></path>
                                    <path d="M44.2122,174.25331 C59.3976,174.25331 62.3646,188.663351 77.6514,188.663351 C91.3776,188.663351 96.4176,173.90987 109.725,173.90987 C125.8242,173.90987 128.5686,188.663351 144.1878,188.663351" id="Shape" stroke="#004BAD" stroke-width="10"></path>
                                    <path d="M44.2122,213.280506 C61.2,213.709205 62.3646,227.690548 77.6514,227.690548 C91.3776,227.690548 96.4176,212.937067 109.725,212.937067 C125.8242,212.937067 128.5686,227.690548 144.1878,227.690548" id="Shape" stroke="#004BAD" stroke-width="10"></path>
                                    <ellipse id="Oval-1" fill="#004BAD" cx="143.4" cy="227.518828" rx="6" ry="6.0041841"></ellipse>
                                    <ellipse id="Oval-1" fill="#004BAD" cx="143.4" cy="188.491632" rx="6" ry="6.0041841"></ellipse>
                                    <ellipse id="Oval-1" fill="#004BAD" cx="45.3" cy="213.408996" rx="6.3" ry="6.30439331"></ellipse>
                                    <ellipse id="Oval-1" fill="#004BAD" cx="45.3" cy="174.381799" rx="6.3" ry="6.30439331"></ellipse>
                                </g>
                            </g>
                        </g>
                    </g>
                </g>
            </g>
        </g>
    </g>
</svg>