<?xml version="1.0" encoding="UTF-8" standalone="no"?>
<svg width="465px" height="478px" viewBox="0 0 465 478" version="1.1" xmlns="http://www.w3.org/2000/svg" xmlns:xlink="http://www.w3.org/1999/xlink" xmlns:sketch="http://www.bohemiancoding.com/sketch/ns">
    <!-- Generator: Sketch 3.4.4 (17249) - http://www.bohemiancoding.com/sketch -->
    <title>logo_opentimestamps_mark</title>
    <desc>Created with Sketch.</desc>
    <defs></defs>
    <g id="Page-1" stroke="none" stroke-width="1" fill="none" fill-rule="evenodd" sketch:type="MSPage">
        <g id="logo_opentimestamps_mark" sketch:type="MSLayerGroup">
            <g id="Page-1" sketch:type="MSShapeGroup">
                <g id="logo_opentimestamps">
                    <g id="Page-1">
                        <g id="logo">
                            <path d="M453,439 L451,439 L451,399 L453,399 C459.627,399 465,404.373 465,411 L465,427 C465,433.627 459.627,439 453,439 L453,439 L453,439 L453,439 Z M453,349 L451,349 L451,309 L453,309 C459.627,309 465,314.373 465,321 L465,337 C465,343.627 459.627,349 453,349 L453,349 L453,349 L453,349 Z M453,259 L451,259 L451,219 L453,219 C459.627,219 465,224.373 465,231 L465,247 C465,253.627 459.627,259 453,259 L453,259 L453,259 L453,259 Z M453,169 L451,169 L451,129 L453,129 C459.627,129 465,134.373 465,141 L465,157 C465,163.627 459.627,169 453,169 L453,169 L453,169 L453,169 Z M453,79 L451,79 L451,39 L453,39 C459.627,39 465,44.373 465,51 L465,67 C465,73.627 459.627,79 453,79 L453,79 L453,79 L453,79 Z M426,464 L406,464 C406,439.147 426.147,419 451,419 L451,439 C437.193,439 426,450.193 426,464 L426,464 L426,464 L426,464 Z M361,439 C347.193,439 336,450.193 336,464 L316,464 C316,439.147 336.147,419 361,419 C385.853,419 406,439.147 406,464 L386,464 C386,450.193 374.807,439 361,439 L361,439 L361,439 L361,439 Z M271,439 C257.193,439 246,450.193 246,464 L246,464 L246,466 C246,472.627 240.627,478 234,478 L218,478 C211.373,478 206,472.627 206,466 L206,464 C206,450.193 194.807,439 181,439 C167.193,439 156,450.193 156,464 L156,466 C156,472.627 150.627,478 144,478 L128,478 C121.373,478 116,472.627 116,466 L116,464 C116,450.193 104.807,439 91,439 L89,439 C82.373,439 77,433.627 77,427 L77,411 C77,404.373 82.373,399 89,399 L91,399 C104.807,399 116,387.807 116,374 C116,360.193 104.807,349 91,349 L91,349 C85.477,349 81,344.523 81,339 C81,333.477 85.477,329 91,329 L91,329 C115.853,329 136,349.147 136,374 C136,398.853 115.853,419 91,419 C115.853,419 136,439.147 136,464 C136,439.147 156.147,419 181,419 C205.853,419 226,439.147 226,464 C226,439.147 246.147,419 271,419 C295.853,419 316,439.147 316,464 L296,464 C296,450.193 284.807,439 271,439 L271,439 L271,439 L271,439 Z M406,374 C406,349.147 426.147,329 451,329 L451,349 C437.193,349 426,360.193 426,374 C426,387.807 437.193,399 451,399 L451,419 C426.147,419 406,398.853 406,374 L406,374 L406,374 L406,374 Z M406,284 C406,259.147 426.147,239 451,239 L451,259 C437.193,259 426,270.193 426,284 C426,297.807 437.193,309 451,309 L451,329 C426.147,329 406,308.853 406,284 L406,284 L406,284 L406,284 Z M406,194 C406,169.147 426.147,149 451,149 L451,169 C437.193,169 426,180.193 426,194 C426,207.807 437.193,219 451,219 L451,239 C426.147,239 406,218.853 406,194 L406,194 L406,194 L406,194 Z M406,104 C406,79.147 426.147,59 451,59 L451,79 C437.193,79 426,90.193 426,104 C426,117.807 437.193,129 451,129 L451,149 C426.147,149 406,128.853 406,104 L406,104 L406,104 L406,104 Z M406,14 L426,14 C426,27.807 437.193,39 451,39 L451,59 C426.147,59 406,38.853 406,14 L406,14 L406,14 L406,14 Z M361,59 C336.147,59 316,38.853 316,14 C316,38.853 295.853,59 271,59 C246.147,59 226,38.853 226,14 C226,38.853 205.853,59 181,59 C156.147,59 136,38.853 136,14 C136,38.853 115.853,59 91,59 C115.853,59 136,79.147 136,104 C136,128.853 115.853,149 91,149 C85.477,149 81,144.523 81,139 C81,133.477 85.477,129 91,129 C104.807,129 116,117.807 116,104 C116,90.193 104.807,79 91,79 L89,79 C82.373,79 77,73.627 77,67 L77,51 C77,44.373 82.373,39 89,39 L91,39 C104.807,39 116,27.807 116,14 L116,12 C116,5.373 121.373,0 128,0 L144,0 C150.627,0 156,5.373 156,12 L156,14 C156,27.807 167.193,39 181,39 C194.807,39 206,27.807 206,14 L206,12 C206,5.373 211.373,0 218,0 L234,0 C240.627,0 246,5.373 246,12 L246,14 C246,27.807 257.193,39 271,39 C284.807,39 296,27.807 296,14 L296,12 C296,5.373 301.373,0 308,0 L324,0 C330.627,0 336,5.373 336,12 L336,14 L336,14 C336,27.807 347.193,39 361,39 C374.807,39 386,27.807 386,14 L406,14 C406,38.853 385.853,59 361,59 L361,59 L361,59 L361,59 Z M386,12 C386,5.373 391.373,0 398,0 L414,0 C420.627,0 426,5.373 426,12 L426,14 L386,14 L386,12 L386,12 L386,12 L386,12 Z M336,466 C336,472.627 330.627,478 324,478 L308,478 C301.373,478 296,472.627 296,466 L296,464 L336,464 L336,466 L336,466 L336,466 L336,466 Z M426,466 C426,472.627 420.627,478 414,478 L398,478 C391.373,478 386,472.627 386,466 L386,464 L426,464 L426,466 L426,466 L426,466 L426,466 Z" id="Shape" fill="#004EAA"></path>
                            <path d="M270,149 C275.523,149 280,153.477 280,159 L280,221.697 C283.028,223.452 285.548,225.972 287.303,229 L320,229 C325.523,229 330,233.477 330,239 C330,244.523 325.523,249 320,249 L287.303,249 C283.843,254.972 277.398,259 270,259 C258.954,259 250,250.046 250,239 C250,231.602 254.028,225.157 260,221.697 L260,159 C260,153.477 264.477,149 270,149 L270,149 L270,149 L270,149 Z M356,389 L185,389 C173.954,389 165,380.046 165,369 L165,339 C165,333.477 169.477,329 175,329 C180.523,329 185,333.477 185,339 L185,359 C185,364.523 189.477,369 195,369 L346,369 C351.523,369 356,364.523 356,359 L356,119 C356,113.477 351.523,109 346,109 L195,109 C189.477,109 185,113.477 185,119 L185,139 C185,144.523 180.523,149 175,149 C169.477,149 165,144.523 165,139 L165,109 C165,97.954 173.954,89 185,89 L356,89 C367.046,89 376,97.954 376,109 L376,369 C376,380.046 367.046,389 356,389 L356,389 L356,389 L356,389 Z" id="Shape" fill="#004EAA"></path>
                            <path d="M8.687,195.286 C33.996,195.286 38.941,219.286 64.419,219.286 C87.296,219.286 95.696,194.714 117.875,194.714 C144.707,194.714 149.281,219.286 175.313,219.286" id="Shape" stroke="#004EAA" stroke-width="20"></path>
                            <path d="M8.687,260.286 C37,261 38.941,284.286 64.419,284.286 C87.296,284.286 95.696,259.714 117.875,259.714 C144.707,259.714 149.281,284.286 175.313,284.286" id="Shape" stroke="#004EAA" stroke-width="20"></path>
                            <circle id="Oval-1" fill="#004EAA" cx="174" cy="284" r="10"></circle>
                            <circle id="Oval-1" fill="#004EAA" cx="174" cy="219" r="10"></circle>
                            <circle id="Oval-1" fill="#004EAA" cx="10.5" cy="260.5" r="10.5"></circle>
                            <circle id="Oval-1" fill="#004EAA" cx="10.5" cy="195.5" r="10.5"></circle>
                        </g>
                    </g>
                </g>
            </g>
        </g>
    </g>
</svg>